name Walk4.mot
datacolumns 19
datarows 20
range 1.04500000 1.14000000
endheader

                time	   L_ground_force_vx	   L_ground_force_vy	   L_ground_force_vz	   L_ground_force_px	   L_ground_force_py	   L_ground_force_pz	   R_ground_force_vx	   R_ground_force_vy	   R_ground_force_vz	   R_ground_force_px	   R_ground_force_py	   R_ground_force_pz	   L_ground_torque_x	   L_ground_torque_y	   L_ground_torque_z	   R_ground_torque_x	   R_ground_torque_y	   R_ground_torque_z	
          1.04500000	        -11.74279122	        126.37541183	        -10.43189117	         -0.00195480	          0.00000000	         -0.00361820	          0.00000002	          0.00000013	          0.00000001	          0.00000000	          0.00000000	          0.00000000	          0.00000000	          0.31815980	          0.00000000	          0.00000000	         -0.00000001	          0.00000000	
          1.05000000	        -17.96622544	        176.99787127	        -13.87484282	         -0.05068489	          0.00000000	         -0.00099384	          0.00000002	          0.00000028	          0.00000003	          0.00000000	          0.00000000	          0.00000000	          0.00000000	          0.51246423	          0.00000000	          0.00000000	         -0.00000001	          0.00000000	
          1.05500000	        -24.93241883	        232.30220516	        -17.51422032	         -0.09623508	          0.00000000	          0.00132225	          0.00000002	          0.00000048	          0.00000004	          0.00000000	          0.00000000	          0.00000000	          0.00000000	          0.72891207	          0.00000000	          0.00000000	         -0.00000001	          0.00000000	
          1.06000000	        -32.33982385	        288.73342884	        -21.01909800	         -0.13607167	          0.00000000	          0.00322519	          0.00000001	          0.00000074	          0.00000006	          0.00000000	          0.00000000	          0.00000000	          0.00000000	          0.95841117	          0.00000000	          0.00000000	         -0.00000001	          0.00000000	
          1.06500000	        -39.90597593	        342.49447218	        -23.94034042	         -0.16889948	          0.00000000	          0.00466802	         -0.00000000	          0.00000105	          0.00000009	          0.00000000	          0.00000000	          0.00000000	          0.00000000	          1.19060919	          0.00000000	          0.00000000	         -0.00000001	          0.00000000	
          1.07000000	        -47.47536437	        390.94601143	        -25.82508713	         -0.19442767	          0.00000000	          0.00563565	         -0.00000002	          0.00000140	          0.00000011	          0.00000000	          0.00000000	          0.00000000	          0.00000000	          1.41663793	          0.00000000	          0.00000000	         -0.00000000	          0.00000000	
          1.07500000	        -54.95983285	        432.65748008	        -26.36731645	         -0.21302792	          0.00000000	          0.00614531	         -0.00000005	          0.00000178	          0.00000014	          0.00000000	          0.00000000	          0.00000000	          0.00000000	          1.62841882	          0.00000000	          0.00000000	         -0.00000000	          0.00000000	
          1.08000000	        -62.30006864	        467.38511487	        -25.47467075	         -0.22546492	          0.00000000	          0.00623889	         -0.00000009	          0.00000215	          0.00000016	          0.00000000	          0.00000000	          0.00000000	          0.00000000	          1.81894173	          0.00000000	          0.00000000	          0.00000000	          0.00000000	
          1.08500000	        -69.50919085	        496.08417726	        -23.24129327	         -0.23269535	          0.00000000	          0.00597510	         -0.00000014	          0.00000246	          0.00000018	          0.00000000	          0.00000000	          0.00000000	          0.00000000	          1.98296774	          0.00000000	          0.00000000	          0.00000001	          0.00000000	
          1.09000000	        -76.70026637	        520.51778282	        -19.88138363	         -0.23572573	          0.00000000	          0.00542093	         -0.00000021	          0.00000265	          0.00000019	          0.00000000	          0.00000000	          0.00000000	          0.00000000	          2.11718791	          0.00000000	          0.00000000	          0.00000002	          0.00000000	
          1.09500000	        -84.02090060	        542.68116141	        -15.66535932	         -0.23552475	          0.00000000	          0.00464846	         -0.00000028	          0.00000261	          0.00000017	          0.00000000	          0.00000000	          0.00000000	          0.00000000	          2.21943136	          0.00000000	          0.00000000	          0.00000004	          0.00000000	
          1.10000000	        -91.52761273	        564.29306887	        -10.87739940	         -0.23297869	          0.00000000	          0.00373403	         -0.00000035	          0.00000223	          0.00000013	          0.00000000	          0.00000000	          0.00000000	          0.00000000	          2.28919462	          0.00000000	          0.00000000	          0.00000005	          0.00000000	
          1.10500000	        -99.08973070	        586.48737674	         -5.78512559	         -0.22887076	          0.00000000	          0.00275222	         -0.00000043	          0.00000136	          0.00000005	         -0.00000000	          0.00000000	         -0.00000000	          0.00000000	          2.32857579	          0.00000000	          0.00000000	          0.00000007	          0.00000000	
          1.11000000	       -106.37237598	        609.74191675	         -0.62314539	         -0.22386964	          0.00000000	          0.00176896	         -0.00000049	         -0.00000016	         -0.00000009	         -0.00000000	          0.00000000	         -0.00000000	          0.00000000	          2.34350742	          0.00000000	          0.00000000	          0.00000010	          0.00000000	
          1.11500000	       -112.89236972	        633.97194572	          4.40411066	         -0.21852366	          0.00000000	          0.00083809	         -0.00000054	         -0.00000251	         -0.00000028	         -0.00000001	          0.00000000	         -0.00000000	          0.00000000	          2.34337334	          0.00000000	          0.00000000	          0.00000012	          0.00000000	
          1.12000000	       -118.12607808	        658.69958274	          9.11821327	         -0.21325584	          0.00000000	         -0.00000203	         -0.00000053	         -0.00000587	         -0.00000056	         -0.00000001	          0.00000000	         -0.00000000	          0.00000000	          2.33867175	          0.00000000	          0.00000000	          0.00000014	          0.00000000	
          1.12500000	       -121.62932738	        683.21578279	         13.38717863	         -0.20836552	          0.00000000	         -0.00072810	         -0.00000046	         -0.00001038	         -0.00000092	         -0.00000002	          0.00000000	         -0.00000000	          0.00000000	          2.33665647	          0.00000000	          0.00000000	          0.00000015	          0.00000000	
          1.13000000	       -123.12129161	        706.68156438	         17.15333146	         -0.20403556	          0.00000000	         -0.00133176	         -0.00000030	         -0.00001614	         -0.00000136	         -0.00000002	          0.00000000	         -0.00000000	          0.00000000	          2.33788197	          0.00000000	          0.00000000	          0.00000016	          0.00000000	
          1.13500000	       -122.51815726	        728.19005344	         20.43330980	         -0.20034487	          0.00000000	         -0.00181883	         -0.00000000	         -0.00002313	         -0.00000189	         -0.00000003	          0.00000000	         -0.00000000	          0.00000000	          2.33670404	          0.00000000	          0.00000000	          0.00000014	          0.00000000	
          1.14000000	       -119.93234561	        746.83267634	         23.28360874	         -0.19728572	          0.00000000	         -0.00220622	          0.00000046	         -0.00003118	         -0.00000248	         -0.00000004	          0.00000000	         -0.00000001	          0.00000000	          2.32608224	          0.00000000	          0.00000000	          0.00000010	          0.00000000	
